<svg
  xmlns="http://www.w3.org/2000/svg"
  width="256"
  height="256"
  viewBox="0 0 24 24"
  fill="none"
  stroke="currentColor"
  stroke-width="1.5"
  stroke-linecap="round"
  stroke-linejoin="round"
>
  <!-- The Gear -->
  <path d="M12 8.5a3.5 3.5 0 1 0 0 7 3.5 3.5 0 1 0 0-7z" />
  <path d="M12 2v1.5m0 17v1.5m6.2-14.2.75-1.3m-13.9 0-.75-1.3m13.9 13.9.75 1.3m-13.9 0-.75 1.3M4.5 12H3m18 0h-1.5" />
  
  <!-- The Brain Outline -->
  <path d="M15.5 3a9.5 9.5 0 1 0 0 18" />
  <path d="M8.5 21a9.5 9.5 0 1 0 0-18" />
</svg>